<svg width="147" height="40" viewBox="0 0 147 40" fill="none" xmlns="http://www.w3.org/2000/svg">
<rect width="40" height="40" rx="12" fill="url(#paint0_linear_450_1077)"/>
<path d="M16 30C16.5523 30 17 29.5523 17 29C17 28.4477 16.5523 28 16 28C15.4477 28 15 28.4477 15 29C15 29.5523 15.4477 30 16 30Z" stroke="white" stroke-width="2" stroke-linecap="round" stroke-linejoin="round"/>
<path d="M27 30C27.5523 30 28 29.5523 28 29C28 28.4477 27.5523 28 27 28C26.4477 28 26 28.4477 26 29C26 29.5523 26.4477 30 27 30Z" stroke="white" stroke-width="2" stroke-linecap="round" stroke-linejoin="round"/>
<path d="M10.0498 10.0498H12.0498L14.7098 22.4698C14.8074 22.9247 15.0605 23.3313 15.4255 23.6197C15.7906 23.908 16.2447 24.0602 16.7098 24.0498H26.4898C26.945 24.0491 27.3863 23.8931 27.7408 23.6076C28.0954 23.3222 28.3419 22.9243 28.4398 22.4798L30.0898 15.0498H13.1198" stroke="white" stroke-width="2" stroke-linecap="round" stroke-linejoin="round"/>
<path d="M52.4022 27L48.3651 12.8909H51.6237L53.9592 22.6942H54.0763L56.6528 12.8909H59.443L62.0126 22.7149H62.1366L64.4721 12.8909H67.7307L63.6936 27H60.7864L58.0996 17.7754H57.9893L55.3094 27H52.4022ZM74.3288 27H69.3273V12.8909H74.3702C75.7893 12.8909 77.011 13.1734 78.0352 13.7383C79.0594 14.2986 79.8471 15.1046 80.3982 16.1564C80.9539 17.2081 81.2318 18.4666 81.2318 19.9317C81.2318 21.4014 80.9539 22.6644 80.3982 23.7207C79.8471 24.7771 79.0548 25.5877 78.0214 26.1526C76.9926 26.7175 75.7618 27 74.3288 27ZM72.3103 24.4441H74.2048C75.0866 24.4441 75.8284 24.2879 76.43 23.9756C77.0363 23.6587 77.491 23.1696 77.7941 22.5082C78.1018 21.8423 78.2557 20.9834 78.2557 19.9317C78.2557 18.8891 78.1018 18.0371 77.7941 17.3758C77.491 16.7144 77.0386 16.2276 76.4369 15.9153C75.8353 15.603 75.0935 15.4468 74.2117 15.4468H72.3103V24.4441ZM86.4245 12.8909V27H83.4415V12.8909H86.4245ZM93.3689 27V12.8909H96.3519V24.5406H102.401V27H93.3689ZM116.792 19.9455C116.792 21.484 116.501 22.793 115.917 23.8723C115.339 24.9516 114.549 25.776 113.547 26.3455C112.551 26.9104 111.43 27.1929 110.185 27.1929C108.932 27.1929 107.806 26.9081 106.81 26.3386C105.813 25.7691 105.025 24.9447 104.447 23.8654C103.868 22.7861 103.579 21.4795 103.579 19.9455C103.579 18.4069 103.868 17.0979 104.447 16.0186C105.025 14.9393 105.813 14.1172 106.81 13.5523C107.806 12.9828 108.932 12.698 110.185 12.698C111.43 12.698 112.551 12.9828 113.547 13.5523C114.549 14.1172 115.339 14.9393 115.917 16.0186C116.501 17.0979 116.792 18.4069 116.792 19.9455ZM113.768 19.9455C113.768 18.9488 113.619 18.1083 113.32 17.424C113.026 16.7397 112.61 16.2207 112.073 15.867C111.536 15.5134 110.906 15.3366 110.185 15.3366C109.464 15.3366 108.835 15.5134 108.298 15.867C107.76 16.2207 107.342 16.7397 107.044 17.424C106.75 18.1083 106.603 18.9488 106.603 19.9455C106.603 20.9421 106.75 21.7826 107.044 22.4669C107.342 23.1512 107.76 23.6702 108.298 24.0239C108.835 24.3775 109.464 24.5543 110.185 24.5543C110.906 24.5543 111.536 24.3775 112.073 24.0239C112.61 23.6702 113.026 23.1512 113.32 22.4669C113.619 21.7826 113.768 20.9421 113.768 19.9455ZM128.357 17.4516C128.261 17.1163 128.125 16.8201 127.951 16.5629C127.776 16.3011 127.563 16.0806 127.31 15.9015C127.062 15.7178 126.777 15.5777 126.456 15.4813C126.139 15.3848 125.788 15.3366 125.402 15.3366C124.681 15.3366 124.047 15.5157 123.501 15.8739C122.959 16.2322 122.536 16.7535 122.233 17.4378C121.93 18.1175 121.778 18.9488 121.778 19.9317C121.778 20.9145 121.927 21.7504 122.226 22.4393C122.525 23.1283 122.947 23.6541 123.494 24.017C124.04 24.3752 124.685 24.5543 125.429 24.5543C126.105 24.5543 126.681 24.4349 127.159 24.1961C127.641 23.9527 128.008 23.6105 128.261 23.1696C128.518 22.7287 128.647 22.2074 128.647 21.6058L129.253 21.6953H125.616V19.4494H131.52V21.2268C131.52 22.4669 131.258 23.5324 130.734 24.4234C130.211 25.3098 129.49 25.9942 128.571 26.4764C127.652 26.9541 126.601 27.1929 125.416 27.1929C124.093 27.1929 122.931 26.9013 121.93 26.318C120.929 25.7301 120.148 24.8965 119.587 23.8172C119.032 22.7333 118.754 21.4473 118.754 19.9592C118.754 18.8156 118.919 17.796 119.25 16.9004C119.585 16.0002 120.054 15.2378 120.655 14.6132C121.257 13.9886 121.957 13.5132 122.756 13.1871C123.556 12.8611 124.421 12.698 125.354 12.698C126.153 12.698 126.897 12.8151 127.586 13.0494C128.275 13.279 128.886 13.6051 129.418 14.0276C129.956 14.4502 130.394 14.9531 130.734 15.5364C131.074 16.1151 131.292 16.7535 131.389 17.4516H128.357ZM146.726 19.9455C146.726 21.484 146.434 22.793 145.851 23.8723C145.272 24.9516 144.482 25.776 143.481 26.3455C142.484 26.9104 141.364 27.1929 140.119 27.1929C138.865 27.1929 137.74 26.9081 136.743 26.3386C135.747 25.7691 134.959 24.9447 134.38 23.8654C133.802 22.7861 133.512 21.4795 133.512 19.9455C133.512 18.4069 133.802 17.0979 134.38 16.0186C134.959 14.9393 135.747 14.1172 136.743 13.5523C137.74 12.9828 138.865 12.698 140.119 12.698C141.364 12.698 142.484 12.9828 143.481 13.5523C144.482 14.1172 145.272 14.9393 145.851 16.0186C146.434 17.0979 146.726 18.4069 146.726 19.9455ZM143.701 19.9455C143.701 18.9488 143.552 18.1083 143.254 17.424C142.96 16.7397 142.544 16.2207 142.007 15.867C141.469 15.5134 140.84 15.3366 140.119 15.3366C139.398 15.3366 138.769 15.5134 138.231 15.867C137.694 16.2207 137.276 16.7397 136.978 17.424C136.684 18.1083 136.537 18.9488 136.537 19.9455C136.537 20.9421 136.684 21.7826 136.978 22.4669C137.276 23.1512 137.694 23.6702 138.231 24.0239C138.769 24.3775 139.398 24.5543 140.119 24.5543C140.84 24.5543 141.469 24.3775 142.007 24.0239C142.544 23.6702 142.96 23.1512 143.254 22.4669C143.552 21.7826 143.701 20.9421 143.701 19.9455Z" fill="url(#paint1_linear_450_1077)"/>
<defs>
<linearGradient id="paint0_linear_450_1077" x1="0" y1="0" x2="40" y2="40" gradientUnits="userSpaceOnUse">
<stop stop-color="#7C3BED"/>
<stop offset="1" stop-color="#7C3BED" stop-opacity="0"/>
</linearGradient>
<linearGradient id="paint1_linear_450_1077" x1="48" y1="20" x2="148" y2="20" gradientUnits="userSpaceOnUse">
<stop stop-color="#7C3BED"/>
<stop offset="1" stop-color="#7C3BED" stop-opacity="0"/>
</linearGradient>
</defs>
</svg>
