<svg width="43" height="38" viewBox="0 0 43 38" fill="none" xmlns="http://www.w3.org/2000/svg">
<path d="M40.1898 21.1137C40.1898 19.2883 38.5065 17.8032 36.4376 17.8032H30.865C31.5554 16.1564 31.9835 14.2002 32.2339 12.7184C32.4867 11.2225 31.9905 9.70835 30.8725 8.56398C29.7578 7.42299 28.1392 6.76855 26.4318 6.76855C25.7411 6.76855 25.1812 7.26262 25.1812 7.87203C25.1812 10.5378 23.4447 14.5621 21.4183 15.4585C19.1373 16.4673 14.6501 17.5852 13.7563 17.8032C13.1983 17.8032 1.79003 17.8032 1.25072 17.8032C0.559989 17.8032 9.31029e-09 18.2973 9.31029e-09 18.9067V34.3553C-8.3372e-05 34.9647 0.559906 35.4588 1.25064 35.4588H5.0028V36.5622C5.0028 37.1717 5.56279 37.6657 6.25352 37.6657H11.4232C12.9509 37.6657 14.2671 36.8557 14.852 35.6973L23.6271 37.6328C23.7263 37.6546 23.8281 37.6657 23.9304 37.6657H31.4347C33.5036 37.6657 35.1869 36.1806 35.1869 34.3553C35.1869 33.9248 35.0933 33.5133 34.923 33.1357C36.5146 32.7523 37.6883 31.4655 37.6883 29.9414C37.6883 29.511 37.5947 29.0994 37.4245 28.7218C39.0161 28.3385 40.1898 27.0517 40.1898 25.5276C40.1898 24.6805 39.8273 23.9066 39.232 23.3206C39.8273 22.7345 40.1898 21.9608 40.1898 21.1137ZM5.00272 33.2518H2.50127V20.0102H5.00272V33.2518ZM12.6737 34.3553C12.6737 34.9638 12.1127 35.4588 11.4231 35.4588H7.50416V20.0102H12.6737V34.3553ZM28.9332 24.4241H36.4376C37.1272 24.4241 37.6883 24.9191 37.6883 25.5276C37.6883 26.1359 37.1272 26.631 36.4376 26.631C35.4945 26.631 29.7041 26.631 28.9332 26.631C28.2425 26.631 27.6825 27.1251 27.6825 27.7345C27.6825 28.3438 28.2425 28.838 28.9332 28.838H33.9361C34.6258 28.838 35.1869 29.333 35.1869 29.9414C35.1869 30.5499 34.6258 31.0449 33.9361 31.0449C33.406 31.0449 29.4635 31.0449 28.9332 31.0449C28.2425 31.0449 27.6825 31.5389 27.6825 32.1484C27.6825 32.7578 28.2425 33.2518 28.9332 33.2518H31.4347C32.1243 33.2518 32.6854 33.7468 32.6854 34.3553C32.6854 34.9638 32.1243 35.4588 31.4347 35.4588H24.0844L15.1753 33.4937V19.7436C16.8628 19.3161 20.4421 18.3589 22.5392 17.4314C25.4118 16.1609 27.1707 12.1422 27.5867 9.1558C28.1188 9.32751 28.5991 9.6172 28.9779 10.0049C29.6203 10.6623 29.9052 11.5328 29.7598 12.3929C29.1674 15.8986 28.4243 17.3376 27.8146 18.4131C27.6208 18.7553 27.6414 19.1614 27.8693 19.4868C28.0972 19.8121 28.4997 20.0102 28.9332 20.0102H36.4376C37.1272 20.0102 37.6883 20.5052 37.6883 21.1137C37.6883 21.7221 37.1272 22.2172 36.4376 22.2172H28.9332C28.2425 22.2172 27.6825 22.7112 27.6825 23.3206C27.6825 23.93 28.2425 24.4241 28.9332 24.4241Z" fill="#009152"/>
<path d="M27.6819 0C26.9911 0 26.4312 0.49406 26.4312 1.10347V3.45753C26.4312 4.06694 26.9911 4.56101 27.6819 4.56101C28.3726 4.56101 28.9326 4.06694 28.9326 3.45753V1.10347C28.9326 0.49406 28.3726 0 27.6819 0Z" fill="#009152"/>
<path d="M20.6075 5.58686L18.8387 4.02634C18.3504 3.59539 17.5584 3.59539 17.07 4.02634C16.5815 4.45727 16.5815 5.15591 17.07 5.58686L18.8387 7.14739C19.3272 7.57833 20.1191 7.57833 20.6075 7.14739C21.0959 6.71644 21.0959 6.0178 20.6075 5.58686Z" fill="#009152"/>
<path d="M16.4265 12.2852H13.925C13.2343 12.2852 12.6743 12.7793 12.6743 13.3886C12.6743 13.9981 13.2343 14.4921 13.925 14.4921H16.4265C17.1172 14.4921 17.6772 13.9981 17.6772 13.3886C17.6772 12.7793 17.1172 12.2852 16.4265 12.2852Z" fill="#009152"/>
<path d="M41.4386 12.2852H38.9371C38.2465 12.2852 37.6865 12.7793 37.6865 13.3886C37.6865 13.9981 38.2465 14.4921 38.9371 14.4921H41.4386C42.1293 14.4921 42.6893 13.9981 42.6893 13.3886C42.6893 12.7793 42.1293 12.2852 41.4386 12.2852Z" fill="#009152"/>
<path d="M38.2945 4.02634C37.8061 3.59539 37.0142 3.59539 36.5257 4.02634L34.757 5.58686C34.2685 6.0178 34.2685 6.71644 34.757 7.14739C35.2453 7.57833 36.0374 7.57833 36.5257 7.14739L38.2945 5.58686C38.783 5.15591 38.783 4.45727 38.2945 4.02634Z" fill="#009152"/>
</svg>
