<svg width="29" height="39" viewBox="0 0 29 39" fill="none" xmlns="http://www.w3.org/2000/svg">
<g clip-path="url(#clip0_282_2720)">
<path d="M24.5493 16.137V10.1279C24.5659 7.40891 23.4425 4.79446 21.437 2.88794C19.498 1.02164 16.9598 0 14.2719 0C14.2303 0 14.1804 0 14.1387 0C8.40501 0.00804442 3.74481 4.5451 3.74481 10.1279V16.137C1.58115 16.3864 0 18.1402 0 20.2638V33.7624C0 36.055 1.89737 37.9455 4.26909 37.9455H24.0334C26.4051 37.9455 28.3025 36.055 28.3025 33.7624V20.2638C28.2941 18.1481 26.713 16.3864 24.5493 16.137ZM5.40085 10.1279H5.40917C5.40917 5.42997 9.32874 1.58475 14.1471 1.58475H14.1554C16.4439 1.5767 18.6408 2.45354 20.2635 4.01416C21.9529 5.63108 22.8933 7.83526 22.8767 10.1279V16.1451H21.0459V10.1279C21.0625 8.30183 20.3135 6.54815 18.9737 5.26105C17.7088 4.03829 15.9945 3.34648 14.2053 3.34648H14.1554C10.3274 3.34648 7.23165 6.38726 7.23165 10.1199V16.1451H5.40085V10.1279ZM19.3897 10.1279V16.1451H8.90432V10.1279C8.90432 7.28019 11.2511 4.9634 14.1637 4.9634H14.2136C15.5618 4.9634 16.86 5.48629 17.817 6.4114C18.8322 7.39281 19.4065 8.73623 19.3897 10.1279ZM26.713 33.7865C26.713 35.1943 25.5313 36.3366 24.075 36.3366H4.30238C2.84605 36.3366 1.66435 35.1943 1.66435 33.7865V20.3041C1.66435 18.8963 2.84605 17.754 4.30238 17.754H24.075C25.5313 17.754 26.713 18.8963 26.713 20.3041V33.7865Z" fill="#009152"/>
<path d="M17.0261 26.5468C16.66 25.3 15.4865 24.4473 14.1468 24.4473C12.4907 24.4473 11.1426 25.7424 11.1426 27.3513C11.1426 28.6464 12.0247 29.7807 13.3146 30.1346V32.387C13.3146 32.8296 13.6891 33.1915 14.1468 33.1915C14.6045 33.1915 14.979 32.8296 14.979 32.387V30.1346C16.5684 29.6922 17.4921 28.0834 17.0261 26.5468ZM14.1468 28.6384C13.4061 28.6384 12.8069 28.0592 12.8069 27.3433C12.8069 26.6273 13.4061 26.048 14.1468 26.048C14.8874 26.048 15.4865 26.6273 15.4865 27.3433C15.4865 28.0592 14.8874 28.6384 14.1468 28.6384Z" fill="#009152"/>
</g>
<defs>
<clipPath id="clip0_282_2720">
<rect width="28.5873" height="38.5929" fill="white"/>
</clipPath>
</defs>
</svg>
