<svg width="43" height="42" viewBox="0 0 43 42" fill="none" xmlns="http://www.w3.org/2000/svg">
<g clip-path="url(#clip0_282_2727)">
<path d="M3.85247 22.0212H39.0283C39.722 22.0212 40.2845 21.4774 40.2845 20.8067V1.2144C40.2845 0.543729 39.722 0 39.0283 0H3.85247C3.15867 0 2.59619 0.543729 2.59619 1.2144V20.8067C2.59619 21.4774 3.15867 22.0212 3.85247 22.0212ZM5.10875 2.42881H37.772V19.5923H5.10875V2.42881Z" fill="#009152"/>
<path d="M42.6056 29.8019C40.4419 27.1878 36.4811 26.7627 33.7767 28.854C32.5745 29.7836 31.7259 30.4101 31.0817 30.8335C30.1867 28.5339 27.8753 26.9061 25.2093 26.9061C23.0611 26.9061 20.1665 26.8103 16.8219 26.0624C13.559 25.3386 11.7461 25.5097 8.60509 26.8789H1.25628C0.562478 26.8789 0 27.4226 0 28.0933V40.2373C0 40.908 0.562478 41.4517 1.25628 41.4517H8.8777C9.5715 41.4517 10.134 40.908 10.134 40.2373V39.0545C12.1247 38.52 13.8362 38.4653 15.5864 38.8686C18.321 39.4985 20.8825 39.8125 23.3216 39.8125C30.9677 39.8125 37.3324 36.679 42.5344 31.3981C42.9678 30.9583 42.9982 30.2763 42.6056 29.8019ZM2.51256 39.023V29.3078H7.62142V39.023H2.51256ZM16.1689 36.506C14.1866 36.0492 12.2724 36.0576 10.134 36.5472V28.8814C12.4544 27.9216 13.6939 27.8605 16.2579 28.4293C19.848 29.232 22.9275 29.335 25.2093 29.335C26.8258 29.335 28.2239 30.331 28.7458 31.7308C28.6989 31.733 18.9279 31.7366 18.9279 31.7366C18.2342 31.7366 17.6717 32.2803 17.6717 32.951C17.6717 33.6216 18.2342 34.1654 18.9279 34.1654C18.9279 34.1654 28.652 34.1652 28.6662 34.1648C30.7986 34.0952 31.9043 33.4122 35.3461 30.7508C36.6706 29.7266 38.4972 29.7082 39.8296 30.5888C31.1522 38.7528 22.2136 37.8985 16.1689 36.506Z" fill="#009152"/>
<path d="M11.3899 7.28623C12.0837 7.28623 12.6462 6.74251 12.6462 6.07183C12.6462 5.40116 12.0837 4.85742 11.3899 4.85742H8.87737C8.18357 4.85742 7.62109 5.40116 7.62109 6.07183V15.9489C7.62109 16.6196 8.18357 17.1633 8.87737 17.1633H11.3899C12.0837 17.1633 12.6462 16.6196 12.6462 15.9489C12.6462 15.2783 12.0837 14.7345 11.3899 14.7345H10.1337V7.28623H11.3899Z" fill="#009152"/>
<path d="M34.0032 4.85742H31.4907C30.7968 4.85742 30.2344 5.40116 30.2344 6.07183C30.2344 6.74251 30.7968 7.28623 31.4907 7.28623H32.7469V14.7345H31.4907C30.7968 14.7345 30.2344 15.2783 30.2344 15.9489C30.2344 16.6196 30.7968 17.1633 31.4907 17.1633H34.0032C34.6971 17.1633 35.2595 16.6196 35.2595 15.9489V6.07183C35.2595 5.40116 34.6971 4.85742 34.0032 4.85742Z" fill="#009152"/>
<path d="M21.4401 4.85742C17.9681 4.85742 15.1587 7.65323 15.1587 11.0104C15.1587 14.3668 17.9673 17.1633 21.4401 17.1633C24.9121 17.1633 27.7215 14.3676 27.7215 11.0104C27.7215 7.65395 24.9129 4.85742 21.4401 4.85742ZM21.4401 14.7345C19.3971 14.7345 17.6712 13.0291 17.6712 11.0104C17.6712 8.99166 19.3971 7.28623 21.4401 7.28623C23.4831 7.28623 25.2089 8.99166 25.2089 11.0104C25.2089 13.0291 23.4831 14.7345 21.4401 14.7345Z" fill="#009152"/>
</g>
<defs>
<clipPath id="clip0_282_2727">
<rect width="42.9065" height="41.427" fill="white"/>
</clipPath>
</defs>
</svg>
