<svg width="43" height="39" viewBox="0 0 43 39" fill="none" xmlns="http://www.w3.org/2000/svg">
<mask id="mask0_282_2703" style="mask-type:luminance" maskUnits="userSpaceOnUse" x="0" y="0" width="43" height="40">
<path d="M42.5476 0H0V39.7446H42.5476V0Z" fill="white"/>
</mask>
<g mask="url(#mask0_282_2703)">
<path d="M32.1332 23.6299C29.176 23.6299 26.77 25.8772 26.77 28.6397C26.77 31.4023 29.176 33.6496 32.1332 33.6496C35.091 33.6496 37.4964 31.4023 37.4964 28.6397C37.4964 25.8772 35.0905 23.6299 32.1332 23.6299ZM32.1332 31.1447C30.6544 31.1447 29.4516 30.0211 29.4516 28.6397C29.4516 27.2583 30.6544 26.1348 32.1332 26.1348C33.6121 26.1348 34.8148 27.2583 34.8148 28.6397C34.8148 30.0213 33.6121 31.1447 32.1332 31.1447Z" fill="#009152"/>
<path d="M13.8094 23.6299C10.8522 23.6299 8.44629 25.8772 8.44629 28.6397C8.44629 31.4023 10.8522 33.6496 13.8094 33.6496C16.7667 33.6496 19.1726 31.4023 19.1726 28.6397C19.1726 25.8772 16.7667 23.6299 13.8094 23.6299ZM13.8094 31.1447C12.3306 31.1447 11.1278 30.0211 11.1278 28.6397C11.1278 27.2583 12.3306 26.1348 13.8094 26.1348C15.2879 26.1348 16.491 27.2583 16.491 28.6397C16.491 30.0213 15.2883 31.1447 13.8094 31.1447Z" fill="#009152"/>
<path d="M35.7445 9.2903C35.5167 8.86738 35.0531 8.60059 34.5463 8.60059H27.4849V11.1056H33.7195L37.3704 17.8887L39.7669 16.7632L35.7445 9.2903Z" fill="#009152"/>
<path d="M28.1106 27.4297H17.9653V29.9346H28.1106V27.4297Z" fill="#009152"/>
<path d="M9.78805 27.4297H5.14007C4.39948 27.4297 3.79932 27.9904 3.79932 28.6821C3.79932 29.374 4.39955 29.9346 5.14007 29.9346H9.78814C10.5287 29.9346 11.1289 29.3739 11.1289 28.6821C11.1289 27.9903 10.5286 27.4297 9.78805 27.4297Z" fill="#009152"/>
<path d="M42.2664 19.7725L39.6291 16.5997C39.3757 16.294 38.9847 16.1153 38.5703 16.1153H28.8273V7.34812C28.8273 6.65631 28.227 6.0957 27.4865 6.0957H5.14007C4.39948 6.0957 3.79932 6.65639 3.79932 7.34812C3.79932 8.03984 4.39955 8.60054 5.14007 8.60054H26.1457V17.3677C26.1457 18.0595 26.7459 18.6201 27.4864 18.6201H37.9137L39.8663 20.9697V27.4291H36.1568C35.4163 27.4291 34.8161 27.9898 34.8161 28.6815C34.8161 29.3734 35.4163 29.934 36.1568 29.934H41.2071C41.9477 29.934 42.5478 29.3732 42.5479 28.6815V20.5407C42.5479 20.2627 42.4487 19.9921 42.2664 19.7725Z" fill="#009152"/>
<path d="M9.69736 21.083H3.52972C2.78911 21.083 2.18896 21.6436 2.18896 22.3354C2.18896 23.0272 2.7892 23.5878 3.52972 23.5878H9.69727C10.4379 23.5878 11.038 23.0272 11.038 22.3354C11.0381 21.6436 10.4379 21.083 9.69736 21.083Z" fill="#009152"/>
<path d="M12.7821 16.1572H1.34074C0.600237 16.1572 0 16.7178 0 17.4097C0 18.1015 0.600237 18.6621 1.34074 18.6621H12.7821C13.5227 18.6621 14.1228 18.1014 14.1228 17.4097C14.1228 16.718 13.5227 16.1572 12.7821 16.1572Z" fill="#009152"/>
<path d="M14.971 11.2305H3.52972C2.78911 11.2305 2.18896 11.7911 2.18896 12.4829C2.18896 13.1746 2.7892 13.7353 3.52972 13.7353H14.971C15.7116 13.7353 16.3118 13.1745 16.3118 12.4829C16.3119 11.7911 15.7116 11.2305 14.971 11.2305Z" fill="#009152"/>
</g>
</svg>
