<svg width="42" height="36" viewBox="0 0 42 36" fill="none" xmlns="http://www.w3.org/2000/svg">
<mask id="mask0_282_2691" style="mask-type:luminance" maskUnits="userSpaceOnUse" x="0" y="0" width="42" height="37">
<path d="M41.3976 0H0V36.3462H41.3976V0Z" fill="white"/>
</mask>
<g mask="url(#mask0_282_2691)">
<path d="M41.0314 12.546H37.1824C36.5896 5.53677 30.1966 0 22.4234 0C14.6503 0 8.25723 5.53677 7.66448 12.546H3.8154C3.17578 12.546 2.65723 13.0229 2.65723 13.6109V25.0164C2.65723 25.6045 3.17578 26.0812 3.8154 26.0812H8.77756C9.41718 26.0812 9.93574 25.6045 9.93574 25.0164V13.6109C9.93574 7.28012 15.5376 2.12966 22.4234 2.12966C29.3091 2.12966 34.9111 7.28012 34.9111 13.6109V25.0164C34.9111 28.8315 31.535 31.9355 27.3855 31.9355H25.8726C25.3876 30.6112 24.0252 29.6544 22.4234 29.6544C20.4168 29.6544 18.7842 31.1554 18.7842 33.0003C18.7842 34.8453 20.4168 36.3462 22.4234 36.3462C24.0252 36.3462 25.3876 35.3895 25.8726 34.0652H27.3855C32.4205 34.0652 36.5839 30.5707 37.1589 26.0812H41.0314C41.671 26.0812 42.1896 25.6045 42.1896 25.0164V13.6109C42.1896 13.0229 41.671 12.546 41.0314 12.546ZM7.61939 23.9516H4.97358V14.6758H7.61939V23.9516ZM22.4234 34.2166C21.694 34.2166 21.1005 33.6709 21.1005 33.0003C21.1005 32.3297 21.694 31.7841 22.4234 31.7841C23.1528 31.7841 23.7463 32.3297 23.7463 33.0003C23.7463 33.6709 23.1528 34.2166 22.4234 34.2166ZM39.8733 23.9516H37.2275V14.6758H39.8733V23.9516Z" fill="#009152"/>
<path d="M30.9301 12.627C30.4975 12.4622 29.9993 12.5532 29.6681 12.8578C29.6681 12.8578 26.0521 16.1812 24.3376 17.7563C23.5676 18.4681 23.126 19.4515 23.126 20.4541C23.126 21.0421 23.6446 21.519 24.2842 21.519H29.3287V23.8758C29.3287 24.4639 29.8473 24.9406 30.4869 24.9406C31.1265 24.9406 31.645 24.4639 31.645 23.8758V21.519H31.7273C32.3671 21.519 32.8856 21.0421 32.8856 20.4541C32.8856 19.8661 32.3671 19.3893 31.7273 19.3893H31.645V13.6108C31.645 13.1802 31.3629 12.7919 30.9301 12.627ZM29.3287 19.3893H25.8521C25.8915 19.3444 25.9332 19.3014 25.9775 19.2604C26.845 18.4635 28.2016 17.2167 29.3287 16.1808V19.3893Z" fill="#009152"/>
<path d="M21.1013 23.8756C21.1013 23.2875 20.5828 22.8108 19.9432 22.8108H15.3084C15.3477 22.766 15.3895 22.7228 15.4338 22.682C17.1458 21.1091 20.7621 17.7855 20.7621 17.7855C20.9793 17.5857 21.1015 17.3148 21.1015 17.0324V16.4621C21.1015 14.3026 19.1907 12.5459 16.842 12.5459C14.4699 12.5459 12.5825 14.3129 12.5825 16.4609V16.4621C12.5825 17.05 13.101 17.5263 13.7406 17.5263C14.3802 17.5263 14.8989 17.049 14.8989 16.4609C14.8989 15.4847 15.7536 14.6755 16.842 14.6755C17.9134 14.6755 18.7851 15.477 18.7851 16.4621V16.5911C17.846 17.4543 15.1898 19.8955 13.794 21.178C13.0239 21.8898 12.5825 22.8731 12.5825 23.8756C12.5825 24.4637 13.101 24.9405 13.7406 24.9405H19.9432C20.5828 24.9405 21.1013 24.4638 21.1013 23.8756Z" fill="#009152"/>
</g>
</svg>
