<svg width="21" height="23" viewBox="0 0 21 23" fill="none" xmlns="http://www.w3.org/2000/svg">
<path d="M10.2643 0C12.9866 0 15.5973 1.08141 17.5222 3.00634C19.4472 4.93127 20.5286 7.54204 20.5286 10.2643C20.5286 13.7701 18.6172 16.6396 16.6031 18.6981C15.5968 19.7155 14.4988 20.6379 13.3231 21.4535L12.8372 21.7843L12.6091 21.9359L12.1792 22.2097L11.796 22.4435L11.3215 22.7194C10.9995 22.9033 10.6351 22.9999 10.2643 22.9999C9.8935 22.9999 9.52911 22.9033 9.20707 22.7194L8.73263 22.4435L8.13959 22.0785L7.92061 21.9359L7.45302 21.6246C6.18462 20.7664 5.00316 19.7863 3.92552 18.6981C1.91144 16.6384 0 13.7701 0 10.2643C0 7.54204 1.08141 4.93127 3.00634 3.00634C4.93127 1.08141 7.54204 0 10.2643 0ZM10.2643 6.84286C9.81499 6.84286 9.37008 6.93136 8.95497 7.1033C8.53986 7.27525 8.16269 7.52727 7.84498 7.84498C7.52727 8.16269 7.27525 8.53986 7.1033 8.95497C6.93136 9.37008 6.84286 9.81499 6.84286 10.2643C6.84286 10.7136 6.93136 11.1585 7.1033 11.5736C7.27525 11.9887 7.52727 12.3659 7.84498 12.6836C8.16269 13.0013 8.53986 13.2533 8.95497 13.4253C9.37008 13.5972 9.81499 13.6857 10.2643 13.6857C11.1717 13.6857 12.042 13.3253 12.6836 12.6836C13.3253 12.042 13.6857 11.1717 13.6857 10.2643C13.6857 9.35688 13.3253 8.48662 12.6836 7.84498C12.042 7.20333 11.1717 6.84286 10.2643 6.84286Z" fill="#7C3BED"/>
</svg>
