<svg width="18" height="18" viewBox="0 0 18 18" fill="none" xmlns="http://www.w3.org/2000/svg">
<path d="M14.75 12.75V7.15C14.75 5.98305 14.2864 4.86389 13.4613 4.03873C12.6361 3.21357 11.517 2.75 10.35 2.75H7.75M14.75 12.75C14.2196 12.75 13.7109 12.9607 13.3358 13.3358C12.9607 13.7109 12.75 14.2196 12.75 14.75C12.75 15.2804 12.9607 15.7891 13.3358 16.1642C13.7109 16.5393 14.2196 16.75 14.75 16.75C15.2804 16.75 15.7891 16.5393 16.1642 16.1642C16.5393 15.7891 16.75 15.2804 16.75 14.75C16.75 14.2196 16.5393 13.7109 16.1642 13.3358C15.7891 12.9607 15.2804 12.75 14.75 12.75ZM7.75 2.75L9.75 0.75M7.75 2.75L9.75 4.75M2.75 12.75C2.21957 12.75 1.71086 12.9607 1.33579 13.3358C0.960714 13.7109 0.75 14.2196 0.75 14.75C0.75 15.2804 0.960714 15.7891 1.33579 16.1642C1.71086 16.5393 2.21957 16.75 2.75 16.75C3.28043 16.75 3.78914 16.5393 4.16421 16.1642C4.53929 15.7891 4.75 15.2804 4.75 14.75C4.75 14.2196 4.53929 13.7109 4.16421 13.3358C3.78914 12.9607 3.28043 12.75 2.75 12.75ZM2.75 12.75V4.75M2.75 4.75C3.28043 4.75 3.78914 4.53929 4.16421 4.16421C4.53929 3.78914 4.75 3.28043 4.75 2.75C4.75 2.21957 4.53929 1.71086 4.16421 1.33579C3.78914 0.960714 3.28043 0.75 2.75 0.75C2.21957 0.75 1.71086 0.960714 1.33579 1.33579C0.960714 1.71086 0.75 2.21957 0.75 2.75C0.75 3.28043 0.960714 3.78914 1.33579 4.16421C1.71086 4.53929 2.21957 4.75 2.75 4.75Z" stroke="white" stroke-width="1.5" stroke-miterlimit="10" stroke-linecap="round" stroke-linejoin="round"/>
</svg>
